# xmcd CD database file
#
# Track frame offsets:
#	187
#	21750
#	40950
#	59912
#	79162
#	101330
#	123375
#	145715
#	167245
#	188875
#
# Disc length: 2874 seconds
#
# Revision: 0
# Processed by: cddbd v1.5PL3 Copyright (c) Steve Scherf et al.
# Submitted via: CDex 1.51
#
DISCID=880b380a
DTITLE=a･chi-a･chi - RONDO
DYEAR=1994
DGENRE=Anime(J)
TTITLE0=宇宙のMelody
TTITLE1=夜に残されて
TTITLE2=時の振り子
TTITLE3=Second Season 〜待ちわびた季節〜
TTITLE4=蒼い迷宮
TTITLE5=笑顔のモニュメント
TTITLE6=L'ESPOIR
TTITLE7=Angel
TTITLE8=銀の雨
TTITLE9=砂と風のロンド
EXTD=YEAR: 1994.11.23
EXTT0=
EXTT1=
EXTT2=
EXTT3=
EXTT4=
EXTT5=
EXTT6=
EXTT7=
EXTT8=
EXTT9=
PLAYORDER=
